<svg version="1.2" baseProfile="tiny-ps" xmlns="http://www.w3.org/2000/svg" viewBox="0 0 25 29" width="25" height="29">
	<title>Header</title>
	<style>
		tspan { white-space:pre }
		.shp0 { fill: #fafafa } 
	</style>
	<g id="Header">
		<g id="Text &amp; Button">
			<g id="Buttons">
				<g id="Apple Button">
					<path id="Apple" class="shp0" d="M25 20.76C25 23.92 21.6 28.95 17.6 28.95C16.78 28.95 15.97 28.64 15.21 28.39C14.45 28.14 13.69 27.83 12.93 27.83C12.02 27.83 11.11 28.14 10.29 28.49C9.48 28.75 8.77 29 8.06 29C6.14 29 4.31 27.53 2.74 24.68C0.71 21.02 0 17.05 0 14.76C0 10.6 3.55 5.92 8.67 5.92C9.84 5.92 10.6 6.38 11.31 6.78C11.72 7.02 12.11 7.24 12.55 7.35C12.53 7.11 12.53 6.9 12.53 6.68C12.53 2.92 15.37 0.78 18.05 0.02C18.2 -0.03 18.31 0.02 18.46 0.07C18.61 0.12 18.66 0.27 18.71 0.38L18.76 0.53L18.76 0.58L18.76 0.68C18.81 1.04 18.81 1.34 18.81 1.65C18.81 3.39 18.21 4.92 17.1 6.13C17.57 5.94 18.05 5.82 18.56 5.82C21.25 5.82 22.97 7.54 23.99 8.82L24.39 9.32L23.78 9.63C22.21 10.75 21.35 12.43 21.35 14.41C21.35 16.75 22.41 18.48 24.7 19.7L24.95 19.85L24.95 20.36C24.95 20.41 24.95 20.41 24.95 20.46C24.95 20.56 25 20.66 25 20.76ZM17.75 1.19C17.8 1.39 17.8 1.55 17.75 1.7C17.75 5.15 15.16 6.68 13.54 7.29C13.49 7.04 13.49 6.83 13.49 6.68C13.49 3.73 15.62 1.95 17.75 1.19ZM23.99 20.56C23.99 20.61 23.99 20.66 23.99 20.71C23.99 24.53 20.03 27.88 17.6 27.88C16.94 27.88 16.23 27.63 15.52 27.37C14.66 27.07 13.79 26.76 12.88 26.76C11.76 26.76 10.75 27.12 9.89 27.47C9.23 27.73 8.57 27.98 8.06 27.98C6.14 27.98 4.56 25.95 3.65 24.22C1.72 20.71 1.01 16.95 1.01 14.76C1.01 10.14 5.07 6.93 8.67 6.93C9.53 6.93 10.14 7.29 10.85 7.7C11.56 8.1 12.27 8.51 13.29 8.51C14.6 8.51 15.67 8 16.58 7.54C17.34 7.19 17.95 6.88 18.61 6.88C20.59 6.88 21.96 7.95 22.92 9.07C21.3 10.34 20.39 12.22 20.39 14.41C20.39 17.05 21.55 19.03 23.99 20.41C23.99 20.46 23.99 20.51 23.99 20.56Z" />
				</g>
			</g>
		</g>
	</g>
</svg>